<svg xmlns="http://www.w3.org/2000/svg" width="430" height="430" style="width:100%;height:100%;transform:translate3d(0,0,0);content-visibility:visible" viewBox="0 0 430 430"><defs><clipPath id="a"><path d="M0 0h430v430H0z"/></clipPath><clipPath id="d"><path d="M0 0h430v430H0z"/></clipPath><clipPath id="c"><path d="M0 0h430v430H0z"/></clipPath><clipPath id="b"><path d="M0 0h430v430H0z"/></clipPath></defs><g clip-path="url(#a)"><g clip-path="url(#b)" style="display:none"><path class="primary"/><path class="primary" style="mix-blend-mode:multiply"/></g><g clip-path="url(#c)" style="display:block"><g fill="#07A889" style="display:block"><path d="M346.931 67.121a2.998 2.998 0 0 0-4.242 0L174.957 234.852l-82.731-82.731a3 3 0 0 0-4.243 0l-55.862 55.861a3 3 0 0 0 0 4.243l140.715 140.714a2.998 2.998 0 0 0 4.242 0l225.715-225.714a3 3 0 0 0 0-4.243l-55.862-55.861z" class="primary"/><path fill-opacity=".5" d="m-42.508 24.822.043-.043v119.009a2.991 2.991 0 0 1-2.164-.879L-185.344 2.195a3 3 0 0 1 0-4.243l55.862-55.861a3 3 0 0 1 4.242-.001l82.732 82.732z" class="primary" style="mix-blend-mode:multiply" transform="translate(217.457 210.03)"/></g><g style="display:none"><path class="primary"/><path class="primary" style="mix-blend-mode:multiply"/></g></g><g clip-path="url(#d)" style="display:none"><path class="primary"/><path class="primary" style="mix-blend-mode:multiply"/></g></g></svg>