<svg xmlns="http://www.w3.org/2000/svg" xmlns:xlink="http://www.w3.org/1999/xlink" viewBox="0 0 430 430" width="430" height="430" preserveAspectRatio="xMidYMid meet" style="width: 100%; height: 100%; transform: translate3d(0px, 0px, 0px); content-visibility: visible;"><defs><clipPath id="__lottie_element_3468"><rect width="430" height="430" x="0" y="0"/></clipPath><clipPath id="__lottie_element_3470"><path d="M0,0 L430,0 L430,430 L0,430z"/></clipPath></defs><g clip-path="url(#__lottie_element_3468)"><g clip-path="url(#__lottie_element_3470)" transform="matrix(1,0,0,1,0,0)" opacity="1" style="display: block;"><g transform="matrix(1,0,0,1,-40.03300476074219,-40.998992919921875)" opacity="1" style="display: block;"><g opacity="1" transform="matrix(1,0,0,1,0,0)"><path stroke-linecap="butt" stroke-linejoin="miter" fill-opacity="0" stroke-miterlimit="4" class="secondary" stroke="rgb(235,230,239)" stroke-opacity="1" stroke-width="12" d=" M334,334.625 C334,334.625 393.625,394.625 393.625,394.625"/></g><g opacity="1" transform="matrix(1,0,0,1,388.32598876953125,388.8680114746094)"><path class="quaternary" fill="rgb(178,104,54)" fill-opacity="1" d=" M37.893001556396484,28.267000198364258 C37.893001556396484,28.267000198364258 28.267000198364258,37.893001556396484 28.267000198364258,37.893001556396484 C24.15399932861328,42.00600051879883 17.483999252319336,42.00600051879883 13.371000289916992,37.893001556396484 C13.371000289916992,37.893001556396484 -37.893001556396484,-13.371000289916992 -37.893001556396484,-13.371000289916992 C-42.00600051879883,-17.483999252319336 -42.00600051879883,-24.15399932861328 -37.893001556396484,-28.267000198364258 C-37.893001556396484,-28.267000198364258 -28.267000198364258,-37.893001556396484 -28.267000198364258,-37.893001556396484 C-24.15399932861328,-42.00600051879883 -17.483999252319336,-42.00600051879883 -13.371000289916992,-37.893001556396484 C-13.371000289916992,-37.893001556396484 37.893001556396484,13.371000289916992 37.893001556396484,13.371000289916992 C42.00600051879883,17.483999252319336 42.00600051879883,24.15399932861328 37.893001556396484,28.267000198364258z"/></g></g><g transform="matrix(0.017571430653333664,-1.006666660308838,1.006666660308838,0.017571430653333664,-46.27064514160156,409.34490966796875)" opacity="1" style="display: block;"><g opacity="1" transform="matrix(1,0,0,1,226.03399658203125,227)"><path class="primary" fill="rgb(75,179,253)" fill-opacity="1" d=" M103.56400299072266,-103.56199645996094 C160.75900268554688,-46.367000579833984 160.75900268554688,46.367000579833984 103.56400299072266,103.56199645996094 C46.36899948120117,160.7570037841797 -46.36899948120117,160.7570037841797 -103.56400299072266,103.56199645996094 C-160.75900268554688,46.367000579833984 -160.75900268554688,-46.367000579833984 -103.56400299072266,-103.56199645996094 C-46.36899948120117,-160.7570037841797 46.36899948120117,-160.7570037841797 103.56400299072266,-103.56199645996094z"/></g><g opacity="0.5" transform="matrix(1,0,0,1,209.51100158691406,211.29100036621094)" style="mix-blend-mode: multiply;"><path class="primary" fill="rgb(75,179,253)" fill-opacity="1" d=" M-67.48100280761719,-68.2969970703125 C-14.743000030517578,-121.03500366210938 72.48999786376953,-121.91699981689453 129.93699645996094,-77.39800262451172 C126.86699676513672,-81.14600372314453 123.58499908447266,-84.77999877929688 120.08699798583984,-88.27799987792969 C62.891998291015625,-145.47300720214844 -29.84600067138672,-145.47300720214844 -87.04100036621094,-88.27799987792969 C-144.23599243164062,-31.08300018310547 -144.23599243164062,61.6510009765625 -87.04100036621094,118.84600067138672 C-82.58399963378906,123.3030014038086 -77.91100311279297,127.41200256347656 -73.05599975585938,131.1739959716797 C-120.18299865722656,73.6449966430664 -121.177001953125,-14.60099983215332 -67.48100280761719,-68.2969970703125z"/></g></g><g transform="matrix(1,0,0,1,209.9669952392578,209.00100708007812)" opacity="1" style="display: block;"><g opacity="1" transform="matrix(1,0,0,1,0,0)"><path class="secondary" fill="rgb(235,230,239)" fill-opacity="1" d=" M87.37799835205078,-134.35000610351562 C25.88800048828125,-195.83999633789062 -73.8219985961914,-195.83999633789062 -135.31199645996094,-134.35000610351562 C-196.81199645996094,-72.8499984741211 -196.81199645996094,26.850000381469727 -135.31199645996094,88.33999633789062 C-73.8219985961914,149.83999633789062 25.88800048828125,149.83999633789062 87.37799835205078,88.33999633789062 C148.8780059814453,26.850000381469727 148.8780059814453,-72.8499984741211 87.37799835205078,-134.35000610351562z M79.89600372314453,80.85800170898438 C22.540000915527344,138.21400451660156 -70.4739990234375,138.21400451660156 -127.83000183105469,80.85800170898438 C-185.18600463867188,23.500999450683594 -185.18600463867188,-69.5009994506836 -127.83000183105469,-126.85700225830078 C-70.4739990234375,-184.22500610351562 22.540000915527344,-184.22500610351562 79.89600372314453,-126.85700225830078 C137.2519989013672,-69.5009994506836 137.2519989013672,23.500999450683594 79.89600372314453,80.85800170898438z"/></g></g><g transform="matrix(-1,0,0,-1,189.36000061035156,186.77200317382812)" opacity="1" style="display: block;"><g opacity="1" transform="matrix(1,0,0,1,0,0)"><path stroke-linecap="round" stroke-linejoin="round" fill-opacity="0" class="tertiary" stroke="rgb(58,51,71)" stroke-opacity="1" stroke-width="7" d=" M-55.61800003051758,55.61800003051758 C-55.61800003051758,55.61800003051758 55.61800003051758,-55.61800003051758 55.61800003051758,-55.61800003051758"/></g></g><g transform="matrix(1,0,0,1,231.78799438476562,229.74200439453125)" opacity="1" style="display: block;"><g opacity="1" transform="matrix(1,0,0,1,0,0)"><path stroke-linecap="round" stroke-linejoin="round" fill-opacity="0" class="tertiary" stroke="rgb(58,51,71)" stroke-opacity="1" stroke-width="7" d=" M0,21.756999969482422 C12.015999794006348,21.756999969482422 21.756999969482422,12.015999794006348 21.756999969482422,0 C21.756999969482422,-12.015999794006348 12.015999794006348,-21.756999969482422 0,-21.756999969482422 C-12.015999794006348,-21.756999969482422 -21.756999969482422,-12.015999794006348 -21.756999969482422,0 C-21.756999969482422,12.015999794006348 -12.015999794006348,21.756999969482422 0,21.756999969482422z"/></g></g><g transform="matrix(1,0,0,1,144.75799560546875,143.2570037841797)" opacity="1" style="display: block;"><g opacity="1" transform="matrix(1,0,0,1,0,0)"><path stroke-linecap="round" stroke-linejoin="round" fill-opacity="0" class="tertiary" stroke="rgb(58,51,71)" stroke-opacity="1" stroke-width="7" d=" M0,21.756999969482422 C12.015999794006348,21.756999969482422 21.756999969482422,12.015999794006348 21.756999969482422,0 C21.756999969482422,-12.015999794006348 12.015999794006348,-21.756999969482422 0,-21.756999969482422 C-12.015999794006348,-21.756999969482422 -21.756999969482422,-12.015999794006348 -21.756999969482422,0 C-21.756999969482422,12.015999794006348 -12.015999794006348,21.756999969482422 0,21.756999969482422z"/></g></g></g></g></svg>