<svg xmlns="http://www.w3.org/2000/svg" width="430" height="430" style="width:100%;height:100%;transform:translate3d(0,0,0);content-visibility:visible" viewBox="0 0 430 430"><defs><clipPath id="a"><path d="M0 0h430v430H0z"/></clipPath><clipPath id="b"><path d="M0 0h430v430H0z"/></clipPath></defs><g clip-path="url(#a)"><g clip-path="url(#b)" style="display:block"><g style="display:block"><path fill="#4AB3FC" d="M339.425 229.15h-33.096c-4.655 0-8.464-3.809-8.464-8.464v-1.422c0-4.655 3.809-8.464 8.464-8.464h33.096c4.655 0 8.464 3.809 8.464 8.464v1.422c0 4.655-3.809 8.464-8.464 8.464z" class="primary"/><path fill="#EBE6EE" d="M349.898 262.02v74.347c0 2.771-2.186 5.039-4.858 5.039h-44.326c-2.672 0-4.858-2.268-4.858-5.039V262.02c0-.789.113-1.642.348-2.515l7.299-26.979c.474-1.747 2.088-3.145 3.752-3.376h31.244c1.664.231 3.278 1.629 3.752 3.376l7.299 26.979c.235.873.348 1.726.348 2.515z" class="secondary"/><path fill="#EBE6EE" d="M-27.021-37.679V28.64c0 2.771 2.186 5.039 4.858 5.039h44.327c2.671 0 4.857-2.268 4.857-5.039v-66.319h-54.042z" class="secondary" opacity=".5" style="mix-blend-mode:multiply" transform="translate(322.876 311.145)"/><path fill="#EBE6EE" d="M5.64 55.781c-2.671 0-4.858-2.267-4.858-5.038v-74.348c0-.789.113-1.642.348-2.515l7.299-26.978c.364-1.34 1.399-2.47 2.613-3.03H.357c-1.664.231-3.279 1.629-3.753 3.376l-7.298 26.979a9.741 9.741 0 0 0-.348 2.515v74.347c0 2.771 2.186 5.039 4.857 5.039l11.825-.347z" class="secondary" opacity=".5" style="mix-blend-mode:multiply" transform="translate(306.898 285.278)"/><path fill="#4AB3FC" d="M10.144 8.828C5.489 8.828 1.68 5.02 1.68.365v-1.422c0-3.832 2.584-7.086 6.093-8.118H-1.68c-4.655 0-8.464 3.809-8.464 8.464V.711c0 4.655 3.809 8.464 8.464 8.464" class="primary" opacity=".5" style="mix-blend-mode:multiply" transform="translate(308.009 219.975)"/><path fill="#393346" d="M373.238 184.427H59a3 3 0 0 1-3-3v-27.508a3 3 0 0 1 3-3h314.238a3 3 0 0 1 3 3v27.508a3 3 0 0 1-3 3zm0 190.08H59a3 3 0 0 1-3-3v-27.098a3 3 0 0 1 3-3h314.238a3 3 0 0 1 3 3v27.098a3 3 0 0 1-3 3z" class="tertiary"/><path fill="#4AB3FC" d="M155.99 54.268h-50.374a3 3 0 0 0-3 3v50.374h53.374V54.268z" class="primary"/><path fill="#EBE6EE" d="M133.211 265.836c.25.22.5.46.74.7 5.35 5.35 8.65 12.73 8.65 20.89v42.74c0 6.21-5.03 11.24-11.24 11.24h-36.59c-6.21 0-11.25-5.03-11.25-11.24v-42.74c0-8.52 3.61-16.21 9.39-21.59" class="secondary"/><path fill="#4AB3FC" d="M134.745 265.839H91.383a6.065 6.065 0 0 1-6.064-6.065v-8.95a6.065 6.065 0 0 1 6.064-6.065h43.362a6.065 6.065 0 0 1 6.064 6.065v8.95a6.065 6.065 0 0 1-6.064 6.065z" class="primary"/><path fill="#F14B00" d="M173.089 107.641H85.517a3 3 0 0 0-3 3v37.278a3 3 0 0 0 3 3h87.572a3 3 0 0 0 3-3v-37.278a3 3 0 0 0-3-3z" class="quinary"/><path fill="#B16836" d="M348.913 137.822c0 2.576-.449 5.097-1.303 7.531a10.66 10.66 0 0 1-9.377 5.566H221.437a10.655 10.655 0 0 1-9.377-5.566 22.654 22.654 0 0 1-1.303-7.531c0-11.487 8.898-21.804 23.043-28.903 3.594-1.804 7.53-3.4 11.742-4.751 9.86-3.172 21.244-5.018 33.383-5.1.302-.009.604-.009.91-.009 9.86 0 19.241 1.161 27.725 3.254 6.732 1.653 12.903 3.892 18.31 6.606 14.145 7.099 23.043 17.416 23.043 28.903z" class="quaternary"/><path fill="#4AB3FC" d="M3.663 4.475v-8.951a6.064 6.064 0 0 1 6.064-6.064h-13.39a6.064 6.064 0 0 0-6.064 6.064v8.951a6.065 6.065 0 0 0 6.064 6.065h13.39a6.065 6.065 0 0 1-6.064-6.065z" class="primary" opacity=".5" style="mix-blend-mode:multiply" transform="translate(95.045 255.299)"/><path fill="#EBE6EE" d="M1.07 26.545v-42.74c0-8.52 3.61-16.21 9.39-21.59H-2.93a29.417 29.417 0 0 0-9.39 21.59v42.74c0 6.21 5.04 11.24 11.25 11.24h13.39c-6.21 0-11.25-5.03-11.25-11.24z" class="secondary" opacity=".5" style="mix-blend-mode:multiply" transform="translate(95.84 303.621)"/><path fill="#4AB3FC" d="M8.696-26.687H-5.696a3 3 0 0 0-3 3v50.374H5.696v-50.374a3 3 0 0 1 3-3z" class="primary" opacity=".5" style="mix-blend-mode:multiply" transform="translate(111.313 80.955)"/><path fill="#F14B00" d="M5.696 18.639v-37.278a3 3 0 0 1 3-3H-5.696a3 3 0 0 0-3 3v37.278a3 3 0 0 0 3 3H8.696a3 3 0 0 1-3-3z" class="quinary" opacity=".5" style="mix-blend-mode:multiply" transform="translate(91.214 129.28)"/><path fill="#393346" d="M5.992 13.754v-27.508a3 3 0 0 1 3-3H-5.992a3 3 0 0 0-3 3v27.508a3 3 0 0 0 3 3H8.992a3 3 0 0 1-3-3z" class="tertiary" opacity=".5" style="mix-blend-mode:multiply" transform="translate(64.992 167.673)"/><path fill="#393346" d="M5.992 13.549v-27.098a3 3 0 0 1 3-3H-5.992a3 3 0 0 0-3 3v27.098a3 3 0 0 0 3 3H8.992a3 3 0 0 1-3-3z" class="tertiary" opacity=".5" style="mix-blend-mode:multiply" transform="translate(64.992 357.958)"/><path fill="#4AB3FC" d="M251.695 229.15h-33.096c-4.655 0-8.464-3.809-8.464-8.464v-1.422c0-4.655 3.809-8.464 8.464-8.464h33.096c4.655 0 8.464 3.809 8.464 8.464v1.422c0 4.655-3.809 8.464-8.464 8.464z" class="primary"/><path fill="#EBE6EE" d="M262.168 262.02v74.347c0 2.771-2.186 5.039-4.858 5.039h-44.326c-2.672 0-4.858-2.268-4.858-5.039V262.02c0-.789.113-1.642.348-2.515l7.299-26.979c.474-1.747 2.088-3.145 3.752-3.376h31.244c1.664.231 3.278 1.629 3.752 3.376l7.299 26.979c.235.873.348 1.726.348 2.515z" class="secondary"/><path fill="#EBE6EE" d="M-27.021-37.679V28.64c0 2.771 2.186 5.039 4.858 5.039h44.327c2.671 0 4.857-2.268 4.857-5.039v-66.319h-54.042z" class="secondary" opacity=".5" style="mix-blend-mode:multiply" transform="translate(235.147 311.145)"/><path fill="#EBE6EE" d="M5.64 55.781c-2.671 0-4.858-2.267-4.858-5.038v-74.348c0-.789.113-1.642.348-2.515l7.299-26.978c.364-1.34 1.399-2.47 2.613-3.03H.357c-1.664.231-3.279 1.629-3.753 3.376l-7.298 26.979a9.741 9.741 0 0 0-.348 2.515v74.347c0 2.771 2.186 5.039 4.857 5.039l11.825-.347z" class="secondary" opacity=".5" style="mix-blend-mode:multiply" transform="translate(219.168 285.278)"/><path fill="#4AB3FC" d="M10.144 8.828C5.489 8.828 1.68 5.02 1.68.365v-1.422c0-3.832 2.584-7.086 6.093-8.118H-1.68c-4.655 0-8.464 3.809-8.464 8.464V.711c0 4.655 3.809 8.464 8.464 8.464" class="primary" opacity=".5" style="mix-blend-mode:multiply" transform="translate(220.279 219.975)"/><path fill="#B16836" d="M3.559 14.649c.53.288 1.1.425 1.663.425A3.5 3.5 0 0 0 6.903 8.5c-.338-.186-8.271-4.64-8.615-13.661a16.011 16.011 0 0 1 1.605-7.592c.1-.206.175-.417.232-.63a100.302 100.302 0 0 0-3.379-.9 106.073 106.073 0 0 0-3.48-.791A23.014 23.014 0 0 0-8.707-4.893C-8.21 8.11 3.079 14.388 3.559 14.649z" class="quaternary" opacity=".5" style="mix-blend-mode:multiply" transform="translate(310.815 116.595)"/><path fill="#B16836" d="M3.56 15.881c.53.288 1.101.424 1.664.424a3.5 3.5 0 0 0 3.073-1.825 3.506 3.506 0 0 0-1.393-4.749c-.338-.186-8.27-4.641-8.618-13.659-.138-3.649 1.013-7.296 3.242-10.27a3.47 3.47 0 0 0 .689-2.07c-.857-.018-1.713-.037-2.578-.037-.307 0-.609-.001-.911.008-1.426.01-2.841.048-4.245.106-2.225 3.796-3.358 8.154-3.192 12.531C-8.208 9.342 3.08 15.62 3.56 15.881z" class="quaternary" opacity=".5" style="mix-blend-mode:multiply" transform="translate(280.196 115.364)"/><path fill="#B16836" d="M-.793-16.07c3.594-1.804 7.529-3.4 11.741-4.751 8.185-2.633 17.43-4.335 27.275-4.89a124.113 124.113 0 0 0-7.368-.219c-.307 0-.609-.001-.911.008-10.793.073-20.982 1.548-30.041 4.102-1.13.319-2.249.647-3.342.999-.808.259-1.598.532-2.382.812-.555.195-1.102.396-1.646.6l-.031.011v.001a79.021 79.021 0 0 0-7.682 3.327C-29.326-8.972-38.223 1.346-38.223 12.833c0 2.576.449 5.097 1.303 7.531a10.655 10.655 0 0 0 9.377 5.566h14.386a10.655 10.655 0 0 1-9.377-5.566 22.654 22.654 0 0 1-1.303-7.531c0-9.385 5.944-17.987 15.832-24.693C-6.776.122 3.682 5.996 4.143 6.25A3.5 3.5 0 0 0 7.509.111C7.171-.075-.767-4.541-1.115-13.556c-.031-.806.018-1.606.109-2.401.072-.037.14-.076.213-.113z" class="quaternary" opacity=".5" style="mix-blend-mode:multiply" transform="translate(248.98 124.989)"/></g><g style="display:block"><path fill="#4AB3FC" d="M883.171 229.385h-33.096c-4.655 0-8.464-3.809-8.464-8.464v-1.422c0-4.655 3.809-8.464 8.464-8.464h33.096c4.655 0 8.464 3.809 8.464 8.464v1.422c0 4.655-3.809 8.464-8.464 8.464z" class="primary"/><path fill="#EBE6EE" d="M893.644 262.255v74.347c0 2.771-2.186 5.039-4.858 5.039H844.46c-2.672 0-4.858-2.268-4.858-5.039v-74.347c0-.789.113-1.642.348-2.515l7.299-26.979c.474-1.747 2.088-3.145 3.752-3.376h31.244c1.664.231 3.278 1.629 3.752 3.376l7.299 26.979c.235.873.348 1.726.348 2.515z" class="secondary"/><path fill="#EBE6EE" d="m-27.251-37.856.23 66.496c0 2.771 2.186 5.039 4.858 5.039h44.327c2.671 0 4.857-2.268 4.857-5.039l-.193-66.249-54.079-.247z" class="secondary" opacity=".5" style="mix-blend-mode:multiply" transform="translate(866.623 311.379)"/><path fill="#EBE6EE" d="M5.64 55.781c-2.671 0-4.858-2.267-4.858-5.038v-74.348c0-.789.113-1.642.348-2.515l7.299-26.978c.364-1.34 1.399-2.47 2.613-3.03H.357c-1.664.231-3.279 1.629-3.753 3.376l-7.298 26.979a9.741 9.741 0 0 0-.348 2.515v74.347c0 2.771 2.186 5.039 4.857 5.039l11.825-.347z" class="secondary" opacity=".5" style="mix-blend-mode:multiply" transform="translate(850.645 285.513)"/><path fill="#4AB3FC" d="M10.144 8.828C5.489 8.828 1.68 5.02 1.68.365v-1.422c0-3.832 2.584-7.086 6.093-8.118H-1.68c-4.655 0-8.464 3.809-8.464 8.464V.711c0 4.655 3.809 8.464 8.464 8.464" class="primary" opacity=".5" style="mix-blend-mode:multiply" transform="translate(851.756 220.21)"/><path fill="#393346" d="M916.985 184.662H602.747a3 3 0 0 1-3-3v-27.508a3 3 0 0 1 3-3h314.238a3 3 0 0 1 3 3v27.508a3 3 0 0 1-3 3zm0 190.08H602.747a3 3 0 0 1-3-3v-27.098a3 3 0 0 1 3-3h314.238a3 3 0 0 1 3 3v27.098a3 3 0 0 1-3 3z" class="tertiary"/><path fill="#4AB3FC" d="M699.737 54.502h-50.374a3 3 0 0 0-3 3v50.374h53.374V54.502z" class="primary"/><path fill="#EBE6EE" d="M676.957 266.07c.25.22.5.46.74.7 5.35 5.35 8.65 12.73 8.65 20.89v42.74c0 6.21-5.03 11.24-11.24 11.24h-36.59c-6.21 0-11.25-5.03-11.25-11.24v-42.74c0-8.52 3.61-16.21 9.39-21.59" class="secondary"/><path fill="#4AB3FC" d="M678.492 266.073H635.13a6.065 6.065 0 0 1-6.064-6.065v-8.95a6.065 6.065 0 0 1 6.064-6.065h43.362a6.065 6.065 0 0 1 6.064 6.065v8.95a6.065 6.065 0 0 1-6.064 6.065z" class="primary"/><path fill="#F14B00" d="M716.836 107.876h-87.572a3 3 0 0 0-3 3v37.278a3 3 0 0 0 3 3h87.572a3 3 0 0 0 3-3v-37.278a3 3 0 0 0-3-3z" class="quinary"/><path fill="#B16836" d="M892.66 138.057c0 2.576-.449 5.097-1.303 7.531a10.66 10.66 0 0 1-9.377 5.566H765.184a10.655 10.655 0 0 1-9.377-5.566 22.654 22.654 0 0 1-1.303-7.531c0-11.487 8.898-21.804 23.043-28.903 3.594-1.804 7.53-3.4 11.742-4.751 9.86-3.172 21.244-5.018 33.383-5.1.302-.009.604-.009.91-.009 9.86 0 19.241 1.161 27.725 3.254 6.732 1.653 12.903 3.892 18.31 6.606 14.145 7.099 23.043 17.416 23.043 28.903z" class="quaternary"/><path fill="#4AB3FC" d="M3.663 4.475v-8.951a6.064 6.064 0 0 1 6.064-6.064h-13.39a6.064 6.064 0 0 0-6.064 6.064v8.951a6.065 6.065 0 0 0 6.064 6.065h13.39a6.065 6.065 0 0 1-6.064-6.065z" class="primary" opacity=".5" style="mix-blend-mode:multiply" transform="translate(638.792 255.533)"/><path fill="#EBE6EE" d="M1.07 26.545v-42.74c0-8.52 3.61-16.21 9.39-21.59H-2.93a29.417 29.417 0 0 0-9.39 21.59v42.74c0 6.21 5.04 11.24 11.25 11.24h13.39c-6.21 0-11.25-5.03-11.25-11.24z" class="secondary" opacity=".5" style="mix-blend-mode:multiply" transform="translate(639.587 303.855)"/><path fill="#4AB3FC" d="M8.696-26.687H-5.696a3 3 0 0 0-3 3v50.374H5.696v-50.374a3 3 0 0 1 3-3z" class="primary" opacity=".5" style="mix-blend-mode:multiply" transform="translate(655.06 81.189)"/><path fill="#F14B00" d="M5.696 18.639v-37.278a3 3 0 0 1 3-3H-5.696a3 3 0 0 0-3 3v37.278a3 3 0 0 0 3 3H8.696a3 3 0 0 1-3-3z" class="quinary" opacity=".5" style="mix-blend-mode:multiply" transform="translate(634.96 129.515)"/><path fill="#393346" d="M5.992 13.754v-27.508a3 3 0 0 1 3-3H-5.992a3 3 0 0 0-3 3v27.508a3 3 0 0 0 3 3H8.992a3 3 0 0 1-3-3z" class="tertiary" opacity=".5" style="mix-blend-mode:multiply" transform="translate(608.739 167.908)"/><path fill="#393346" d="M5.992 13.549v-27.098a3 3 0 0 1 3-3H-5.992a3 3 0 0 0-3 3v27.098a3 3 0 0 0 3 3H8.992a3 3 0 0 1-3-3z" class="tertiary" opacity=".5" style="mix-blend-mode:multiply" transform="translate(608.739 358.193)"/><path fill="#4AB3FC" d="M795.442 229.385h-33.096c-4.655 0-8.464-3.809-8.464-8.464v-1.422c0-4.655 3.809-8.464 8.464-8.464h33.096c4.655 0 8.464 3.809 8.464 8.464v1.422c0 4.655-3.809 8.464-8.464 8.464z" class="primary"/><path fill="#EBE6EE" d="M805.915 262.255v74.347c0 2.771-2.186 5.039-4.858 5.039h-44.326c-2.672 0-4.858-2.268-4.858-5.039v-74.347c0-.789.113-1.642.348-2.515l7.299-26.979c.474-1.747 2.088-3.145 3.752-3.376h31.244c1.664.231 3.278 1.629 3.752 3.376l7.299 26.979c.235.873.348 1.726.348 2.515z" class="secondary"/><path fill="#EBE6EE" d="M-27.238-37.286c-.049-.028.217 65.926.217 65.926 0 2.771 2.186 5.039 4.858 5.039h44.327c2.671 0 4.857-2.268 4.857-5.039l-.2-65.705s-53.833-.095-54.059-.221z" class="secondary" opacity=".5" style="mix-blend-mode:multiply" transform="translate(778.894 311.379)"/><path fill="#EBE6EE" d="M5.64 55.781c-2.671 0-4.858-2.267-4.858-5.038v-74.348c0-.789.113-1.642.348-2.515l7.299-26.978c.364-1.34 1.399-2.47 2.613-3.03H.357c-1.664.231-3.279 1.629-3.753 3.376l-7.298 26.979a9.741 9.741 0 0 0-.348 2.515v74.347c0 2.771 2.186 5.039 4.857 5.039l11.825-.347z" class="secondary" opacity=".5" style="mix-blend-mode:multiply" transform="translate(762.915 285.513)"/><path fill="#4AB3FC" d="M10.144 8.828C5.489 8.828 1.68 5.02 1.68.365v-1.422c0-3.832 2.584-7.086 6.093-8.118H-1.68c-4.655 0-8.464 3.809-8.464 8.464V.711c0 4.655 3.809 8.464 8.464 8.464" class="primary" opacity=".5" style="mix-blend-mode:multiply" transform="translate(764.026 220.21)"/><path fill="#B16836" d="M3.559 14.649c.53.288 1.1.425 1.663.425A3.5 3.5 0 0 0 6.903 8.5c-.338-.186-8.271-4.64-8.615-13.661a16.011 16.011 0 0 1 1.605-7.592c.1-.206.175-.417.232-.63a100.302 100.302 0 0 0-3.379-.9 106.073 106.073 0 0 0-3.48-.791A23.014 23.014 0 0 0-8.707-4.893C-8.21 8.11 3.079 14.388 3.559 14.649z" class="quaternary" opacity=".5" style="mix-blend-mode:multiply" transform="translate(854.562 116.83)"/><path fill="#B16836" d="M3.56 15.881c.53.288 1.101.424 1.664.424a3.5 3.5 0 0 0 3.073-1.825 3.506 3.506 0 0 0-1.393-4.749c-.338-.186-8.27-4.641-8.618-13.659-.138-3.649 1.013-7.296 3.242-10.27a3.47 3.47 0 0 0 .689-2.07c-.857-.018-1.713-.037-2.578-.037-.307 0-.609-.001-.911.008-1.426.01-2.841.048-4.245.106-2.225 3.796-3.358 8.154-3.192 12.531C-8.208 9.342 3.08 15.62 3.56 15.881z" class="quaternary" opacity=".5" style="mix-blend-mode:multiply" transform="translate(823.943 115.599)"/><path fill="#B16836" d="M-.793-16.07c3.594-1.804 7.529-3.4 11.741-4.751 8.185-2.633 17.43-4.335 27.275-4.89a124.113 124.113 0 0 0-7.368-.219c-.307 0-.609-.001-.911.008-10.793.073-20.982 1.548-30.041 4.102-1.13.319-2.249.647-3.342.999-.808.259-1.598.532-2.382.812-.555.195-1.102.396-1.646.6l-.031.011v.001a79.021 79.021 0 0 0-7.682 3.327C-29.326-8.972-38.223 1.346-38.223 12.833c0 2.576.449 5.097 1.303 7.531a10.655 10.655 0 0 0 9.377 5.566h14.386a10.655 10.655 0 0 1-9.377-5.566 22.654 22.654 0 0 1-1.303-7.531c0-9.385 5.944-17.987 15.832-24.693C-6.776.122 3.682 5.996 4.143 6.25A3.5 3.5 0 0 0 7.509.111C7.171-.075-.767-4.541-1.115-13.556c-.031-.806.018-1.606.109-2.401.072-.037.14-.076.213-.113z" class="quaternary" opacity=".5" style="mix-blend-mode:multiply" transform="translate(792.727 125.224)"/></g></g></g></svg>