<svg xmlns="http://www.w3.org/2000/svg" width="430" height="430" style="width:100%;height:100%;transform:translate3d(0,0,0);content-visibility:visible" viewBox="0 0 430 430"><defs><clipPath id="b"><path d="M0 0h430v430H0z"/></clipPath><clipPath id="c"><path d="M0 0h430v430H0z"/></clipPath><path id="a" fill="#F24C00" d="M-54.535 88.691c-9.637 1.902-19.074-4.082-21.462-13.61l-40.527-161.668c-3.745-14.938 5.786-29.965 20.894-32.947 15.108-2.982 29.633 7.299 31.844 22.539l23.932 164.942c1.41 9.721-5.044 18.842-14.681 20.744z" class="quaternary" style="display:block" transform="translate(215 215)"/><mask id="d" mask-type="alpha"><use xmlns:ns1="http://www.w3.org/1999/xlink" ns1:href="#a"/></mask></defs><g clip-path="url(#b)"><g clip-path="url(#c)" style="display:block"><g style="display:block"><path fill="#2CA48D" d="m270.725 73.679-82.764 72.351 45.459 76.785s99.558-28.312 93.808-60.581c-5.75-32.269-56.503-88.555-56.503-88.555z" class="secondary"/><path fill="#2CA48D" d="M321.737 133.714c12.508 7.124 18.27 22.499 12.952 36.343a29.542 29.542 0 0 1-17.228 17.076v.002c.729 4.689.269 9.624-1.561 14.378-4.797 12.463-17.455 19.568-30.127 17.838l.005.001c2.878 6.582 3.266 14.252.482 21.484-5.597 14.553-21.937 21.802-36.49 16.205-8.849-3.413-14.998-10.794-17.2-19.334-6.369 9.934-18.65 15.264-30.948 12.048-13.581-3.552-22.605-16.896-20.828-30.821.885-6.934 4.167-12.888 8.87-17.22-11.487-5.371-18.293-18.053-15.711-31.06a28.095 28.095 0 0 1 3.924-9.745c2.427-3.777 1.887-8.683-1.056-12.073-8.974-10.336-13.245-24.557-10.374-39.017 3.929-19.788 20.045-34.057 38.998-36.547 2.519-.331 4.578-2.069 5.473-4.447 4.774-12.686 18.171-20.432 31.912-17.704 2.983.592 5.75 1.63 8.263 3.042 5.307-11.648 18.074-18.554 31.173-15.954 15.295 3.037 25.239 17.893 22.202 33.188l-.019.09c-.587 2.891 2.126 5.294 4.957 4.465 4.985-1.46 10.439-1.627 15.899-.188 13.893 3.66 23.281 17.106 21.877 31.404a29.612 29.612 0 0 1-25.445 26.546z" class="secondary"/><path fill="none" stroke="#2CA48D" stroke-linecap="round" stroke-linejoin="round" stroke-opacity=".5" stroke-width="7" d="M55.235-121.188S17.578-72.851 16.947 25.203M64.646-91.493c-22.025 2.491-31.067 14.456-31.067 14.456m39.543 19.73c-36.517 7.198-52.501 32.989-52.501 32.989m-5.478-85.889c16.506 13.098 18.436 33.17 18.436 33.17m-39.786-2.945c19.238 14.999 26.828 55.664 26.828 55.664" class="secondary" style="mix-blend-mode:multiply" transform="translate(215 215)"/></g><g style="display:block"><path fill="#2CA48D" d="m144.49 101.5 12.976-59.927c.661-3.053-2.98-5.162-5.299-3.069l-18.883 17.041-25.011-16.419-16.636 24.638-23.941-8.589c-2.941-1.055-5.508 2.279-3.736 4.852l34.77 50.504" class="secondary"/><path fill="#F14B00" d="M160.465 303.691c-9.637 1.902-19.074-4.082-21.462-13.61L98.476 128.413c-3.745-14.938 5.786-29.965 20.894-32.947 15.108-2.982 29.633 7.299 31.844 22.539l23.932 164.942c1.41 9.721-5.044 18.842-14.681 20.744z" class="tertiary"/></g><g mask="url(#d)" opacity=".5" style="mix-blend-mode:multiply;display:block"><path fill="none" stroke="#F14B00" stroke-linecap="round" stroke-linejoin="round" stroke-width="7" d="m100.552 136.673 17.244-3.403m27.241 46.516 14.582-2.878m-35.822 50.714 13.447-2.654" class="tertiary" opacity="1"/></g><path fill="#B16836" d="M132.944 160.197h-266.865V-39.952l13.343-13.343 13.343 13.343 13.344-13.343 13.343 13.343 13.343-13.343 13.343 13.343 13.344-13.343 13.343 13.343 13.343-13.343L-.489-39.952l13.344-13.343 13.343 13.343 13.343-13.343 13.343 13.343 13.344-13.343 13.343 13.343 13.343-13.343 13.344 13.343 13.343-13.343 13.343 13.343v200.149z" class="primary" style="display:block" transform="translate(215 215)"/><g opacity=".5" style="mix-blend-mode:multiply;display:block"><path fill="#B16836" d="M0 66.716v-173.462l-13.343 13.343-13.344-13.343-13.343 13.343v200.149h80.06L0 66.716z" class="primary" opacity="1" style="mix-blend-mode:multiply" transform="translate(308.253 269.021)"/></g></g></g></svg>