<svg xmlns="http://www.w3.org/2000/svg" width="430" height="430" style="width:100%;height:100%;transform:translate3d(0,0,0);content-visibility:visible" viewBox="0 0 430 430"><defs><clipPath id="g"><path d="M0 0h430v430H0z"/></clipPath><clipPath id="p"><path d="M0 0h430v430H0z"/></clipPath><clipPath id="o"><path d="M0 0h430v430H0z"/></clipPath><clipPath id="n"><path d="M0 0h430v430H0z"/></clipPath><clipPath id="m"><path d="M0 0h430v430H0z"/></clipPath><clipPath id="h"><path d="M0 0h430v430H0z"/></clipPath><clipPath id="i"><path d="M0 0h430v430H0z"/></clipPath><filter id="a" width="100%" height="100%" x="0%" y="0%" filterUnits="objectBoundingBox"><feComponentTransfer in="SourceGraphic"><feFuncA tableValues="1.0 0.0" type="table"/></feComponentTransfer></filter><filter id="c" width="100%" height="100%" x="0%" y="0%" filterUnits="objectBoundingBox"><feComponentTransfer in="SourceGraphic"><feFuncA tableValues="1.0 0.0" type="table"/></feComponentTransfer></filter><filter id="e" width="100%" height="100%" x="0%" y="0%" filterUnits="objectBoundingBox"><feComponentTransfer in="SourceGraphic"><feFuncA tableValues="1.0 0.0" type="table"/></feComponentTransfer></filter><path id="b" style="display:none"/><path id="d" style="display:none"/><path id="f" style="display:none"/><mask id="l" mask-type="alpha"><g filter="url(#a)"><path fill="#fff" d="M0 0h430v430H0z" opacity="0"/><use xmlns:ns1="http://www.w3.org/1999/xlink" ns1:href="#b"/></g></mask><mask id="k" mask-type="alpha"><g filter="url(#c)"><path fill="#fff" d="M0 0h430v430H0z" opacity="0"/><use xmlns:ns2="http://www.w3.org/1999/xlink" ns2:href="#d"/></g></mask><mask id="j" mask-type="alpha"><g filter="url(#e)"><path fill="#fff" d="M0 0h430v430H0z" opacity="0"/><use xmlns:ns3="http://www.w3.org/1999/xlink" ns3:href="#f"/></g></mask></defs><g clip-path="url(#g)"><g clip-path="url(#h)" style="display:none"><path class="tertiary" style="display:none"/><g style="display:none"><path class="tertiary"/><path class="tertiary" style="mix-blend-mode:multiply"/></g><path class="tertiary" style="display:none"/><g clip-path="url(#i)" mask="url(#j)" style="display:none"><g mask="url(#k)" style="display:none"><path class="tertiary"/></g><g mask="url(#l)" style="display:none"><path class="tertiary"/><path class="tertiary" style="mix-blend-mode:multiply"/></g><path class="tertiary" style="display:none"/></g><path class="secondary" style="display:none"/><path class="secondary" style="display:none"/><g style="mix-blend-mode:multiply;display:none"><path class="secondary"/><path class="secondary" style="mix-blend-mode:multiply"/></g><g fill="none" style="display:none"><path class="secondary"/><path class="secondary" style="mix-blend-mode:multiply"/></g><path class="primary" style="display:none"/></g><g clip-path="url(#m)" style="display:none"><path class="secondary" style="display:none"/><g style="display:none"><path class="secondary"/><g fill="none"><path class="secondary"/><path class="secondary" style="mix-blend-mode:multiply"/></g></g><g style="mix-blend-mode:multiply;display:none"><path class="secondary"/><path class="secondary" style="mix-blend-mode:multiply"/></g><path class="primary" style="display:none"/></g><g clip-path="url(#n)" style="display:none"><path class="tertiary" style="display:none"/><g style="display:none"><path class="tertiary"/><path class="tertiary" style="mix-blend-mode:multiply"/></g><path class="tertiary" style="display:none"/><path class="secondary" style="display:none"/><path class="secondary" style="display:none"/><g style="mix-blend-mode:multiply;display:none"><path class="secondary"/><path class="secondary" style="mix-blend-mode:multiply"/></g><g fill="none" style="display:none"><path class="secondary"/><path class="secondary" style="mix-blend-mode:multiply"/></g><path class="primary" style="display:none"/></g><g clip-path="url(#o)" style="display:block"><path fill="#F14B00" d="M184.9-79.715v-17.2a12.88 12.88 0 0 0-12.9-12.9h-344a12.88 12.88 0 0 0-12.9 12.9v17.2a12.88 12.88 0 0 0 12.9 12.9h1.89l1.26 4.21 6.16 20.66 39.16 131.16c3.39 11.37 15.79 20.6 27.65 20.6H97.46c11.86 0 24.16-9.25 27.45-20.65l37.79-131.11 7.15-24.8v-.07H172a12.88 12.88 0 0 0 12.9-12.9z" class="secondary" style="display:block" transform="translate(215.5 264.115)"/><path fill="#F14B00" d="M184.9 8.565v-17.2a12.88 12.88 0 0 0-12.9-12.9h-344a12.88 12.88 0 0 0-12.9 12.9v17.2a12.88 12.88 0 0 0 12.9 12.9h1.91v.07h339.94v-.07H172a12.88 12.88 0 0 0 12.9-12.9z" class="secondary" style="display:block" transform="translate(215.5 175.835)"/><g opacity=".5" style="mix-blend-mode:multiply;display:block"><g fill="#F14B00" opacity="1"><path d="m378.25 222.17 7.15-24.8-339.8.08 1.12 4.06 6.16 20.66h325.37z" class="secondary"/><path fill-opacity=".5" d="m162.75 12.4 7.15-24.8-339.8.08 1.12 4.06 6.16 20.66h325.37z" class="secondary" style="mix-blend-mode:multiply" transform="translate(215.5 209.77)"/></g></g><g fill="none" stroke="#F14B00" stroke-linecap="round" stroke-linejoin="round" stroke-width="7" style="display:block"><path d="M327.083 226.089 301.21 335.636m-30.027-90.902-10.922 90.941m-42.828-78.811-.399 78.811M107.083 226.201l26.126 109.59m29.976-89.298 11.076 88.438" class="secondary"/><path stroke-opacity=".5" d="M110-54.851 84.127 54.696M54.1-36.206 43.178 54.735M.35-24.076l-.399 78.811M-110-54.739l26.126 109.59m29.976-89.298 11.076 88.438" class="secondary" style="mix-blend-mode:multiply" transform="translate(217.083 280.94)"/></g><path fill="#FFC638" d="M17.21 74.59V-84.15s.189-4.494-1.75-6.15c-2.271-1.939-7.21-1.5-7.21-1.5l-18 .25s-2.903-.93-5.835 1.25c-2.18 1.621-1.625 6.65-1.625 6.65V74.59a17.208 17.208 0 0 0 23.796 15.9 17.212 17.212 0 0 0 10.624-15.9z" class="primary" style="display:block" transform="translate(215.75 133.65)"/></g><g clip-path="url(#p)" style="display:none"><path class="secondary" style="display:none"/><path class="secondary" style="display:none"/><g style="mix-blend-mode:multiply;display:none"><path class="secondary"/><path class="secondary" style="mix-blend-mode:multiply"/></g><g fill="none" style="display:none"><path class="secondary"/><path class="secondary" style="mix-blend-mode:multiply"/></g><path class="primary" style="display:none"/></g></g></svg>