<svg xmlns="http://www.w3.org/2000/svg" width="430" height="430" style="width:100%;height:100%;transform:translate3d(0,0,0);content-visibility:visible" viewBox="0 0 430 430"><defs><clipPath id="o"><path d="M0 0h430v430H0z"/></clipPath><clipPath id="z"><path d="M0 0h430v430H0z"/></clipPath><clipPath id="x"><path d="M0 0h430v430H0z"/></clipPath><clipPath id="v"><path d="M0 0h430v430H0z"/></clipPath><clipPath id="t"><path d="M0 0h430v430H0z"/></clipPath><clipPath id="r"><path d="M0 0h430v430H0z"/></clipPath><clipPath id="p"><path d="M0 0h430v430H0z"/></clipPath><filter id="a" width="100%" height="100%" x="0%" y="0%" filterUnits="objectBoundingBox"><feComponentTransfer in="SourceGraphic"><feFuncA tableValues="1.0 0.0" type="table"/></feComponentTransfer></filter><filter id="c" width="100%" height="100%" x="0%" y="0%" filterUnits="objectBoundingBox"><feComponentTransfer in="SourceGraphic"><feFuncA tableValues="1.0 0.0" type="table"/></feComponentTransfer></filter><filter id="e" width="100%" height="100%" x="0%" y="0%" filterUnits="objectBoundingBox"><feComponentTransfer in="SourceGraphic"><feFuncA tableValues="1.0 0.0" type="table"/></feComponentTransfer></filter><filter id="g" width="100%" height="100%" x="0%" y="0%" filterUnits="objectBoundingBox"><feComponentTransfer in="SourceGraphic"><feFuncA tableValues="1.0 0.0" type="table"/></feComponentTransfer></filter><filter id="i" width="100%" height="100%" x="0%" y="0%" filterUnits="objectBoundingBox"><feComponentTransfer in="SourceGraphic"><feFuncA tableValues="1.0 0.0" type="table"/></feComponentTransfer></filter><filter id="k" width="100%" height="100%" x="0%" y="0%" filterUnits="objectBoundingBox"><feComponentTransfer in="SourceGraphic"><feFuncA tableValues="1.0 0.0" type="table"/></feComponentTransfer></filter><filter id="m" width="100%" height="100%" x="0%" y="0%" filterUnits="objectBoundingBox"><feComponentTransfer in="SourceGraphic"><feFuncA tableValues="1.0 0.0" type="table"/></feComponentTransfer></filter><path id="b" style="display:none"/><path id="f" fill="#FFC738" d="M-61.833-152.553c-49.14-23.349-93.069 48.913-69.72 98.053-51.263 18.255-51.263 90.745 0 109-23.349 49.14 27.913 100.402 77.053 77.053 18.255 51.263 102.411 69.93 120.666 18.667 49.14 23.349 88.736-46.58 65.387-95.72 51.263-18.255 51.263-90.745 0-109 23.349-49.14-27.913-100.402-77.053-77.053-18.255-51.263-98.078-72.263-116.333-21z" class="secondary" style="display:block" transform="translate(269.666 195)"/><path id="h" class="secondary" style="display:none"/><path id="j" class="secondary" style="display:none"/><path id="l" style="display:none"/><path id="n" class="secondary" style="display:none"/><path id="d" style="display:none"/><mask id="B" mask-type="alpha"><g filter="url(#a)"><path fill="#fff" d="M0 0h430v430H0z" opacity="0"/><use xmlns:ns1="http://www.w3.org/1999/xlink" ns1:href="#b"/></g></mask><mask id="A" mask-type="alpha"><g filter="url(#c)"><path fill="#fff" d="M0 0h430v430H0z" opacity="0"/><use xmlns:ns2="http://www.w3.org/1999/xlink" ns2:href="#d"/></g></mask><mask id="y" mask-type="alpha"><g filter="url(#e)"><path fill="#fff" d="M0 0h430v430H0z" opacity="0"/><use xmlns:ns3="http://www.w3.org/1999/xlink" ns3:href="#f"/></g></mask><mask id="w" mask-type="alpha"><g filter="url(#g)"><path fill="#fff" d="M0 0h430v430H0z" opacity="0"/><use xmlns:ns4="http://www.w3.org/1999/xlink" ns4:href="#h"/></g></mask><mask id="u" mask-type="alpha"><g filter="url(#i)"><path fill="#fff" d="M0 0h430v430H0z" opacity="0"/><use xmlns:ns5="http://www.w3.org/1999/xlink" ns5:href="#j"/></g></mask><mask id="s" mask-type="alpha"><g filter="url(#k)"><path fill="#fff" d="M0 0h430v430H0z" opacity="0"/><use xmlns:ns6="http://www.w3.org/1999/xlink" ns6:href="#l"/></g></mask><mask id="q" mask-type="alpha"><g filter="url(#m)"><path fill="#fff" d="M0 0h430v430H0z" opacity="0"/><use xmlns:ns7="http://www.w3.org/1999/xlink" ns7:href="#n"/></g></mask></defs><g clip-path="url(#o)"><g clip-path="url(#p)" style="display:none"><path class="secondary" style="display:none"/><g mask="url(#q)" style="mix-blend-mode:multiply;display:none"><path class="secondary"/></g><path class="secondary" style="mix-blend-mode:multiply;display:none"/><g fill="none" style="display:none"><path class="primary"/><path class="primary"/></g></g><g clip-path="url(#r)" style="display:none"><path class="secondary" style="display:none"/><g mask="url(#s)" style="mix-blend-mode:multiply;display:none"><path class="secondary"/></g><path class="secondary" style="mix-blend-mode:multiply;display:none"/><g fill="none" style="display:none"><path class="primary"/><path class="primary"/></g></g><g clip-path="url(#t)" style="display:none"><path class="secondary" style="display:none"/><g mask="url(#u)" style="mix-blend-mode:multiply;display:none"><path class="secondary"/></g><path class="secondary" style="mix-blend-mode:multiply;display:none"/><g fill="none" style="display:none"><path class="primary"/><path class="primary"/></g><path fill="none" class="secondary" style="display:none"/></g><g clip-path="url(#v)" style="display:none"><path class="secondary" style="display:none"/><g mask="url(#w)" style="mix-blend-mode:multiply;display:none"><path class="secondary"/></g><path class="secondary" style="mix-blend-mode:multiply;display:none"/><g fill="none" style="display:none"><path class="primary"/><path class="primary"/></g><path fill="none" class="secondary" style="display:none"/></g><g clip-path="url(#x)" style="display:block"><path fill="#FFC638" d="M-54.5-131.553c-49.14-23.349-100.402 27.913-77.053 77.053-51.263 18.255-51.263 90.745 0 109-23.349 49.14 27.913 100.402 77.053 77.053 18.255 51.263 90.745 51.263 109 0 49.14 23.349 100.402-27.913 77.053-77.053 51.263-18.255 51.263-90.745 0-109 23.349-49.14-27.913-100.402-77.053-77.053-18.255-51.263-90.745-51.263-109 0z" class="secondary" style="display:block" transform="translate(215 215)"/><g mask="url(#y)" opacity=".3" style="mix-blend-mode:multiply;display:block"><path fill="#FFC638" d="M160.5 83.447C111.36 60.098 60.098 111.36 83.447 160.5c-51.263 18.255-51.263 90.745 0 109-23.349 49.14 27.913 100.402 77.053 77.053 18.255 51.263 90.745 51.263 109 0 49.14 23.349 100.402-27.913 77.053-77.053 51.263-18.255 51.263-90.745 0-109 23.349-49.14-27.913-100.402-77.053-77.053-18.255-51.263-90.745-51.263-109 0z" class="secondary" opacity="1"/></g><g opacity=".3" style="mix-blend-mode:multiply;display:block"><path fill="#FFC638" d="M164.918 72.045a61.027 61.027 0 0 0-5.418 11.402 61.048 61.048 0 0 0-11.885-4.233c-41.086-9.913-79.313 28.315-69.4 69.401a61.043 61.043 0 0 0 4.232 11.885 61.027 61.027 0 0 0-11.402 5.418c-36.06 22.056-36.06 76.108 0 98.164a61.027 61.027 0 0 0 11.402 5.418 61.043 61.043 0 0 0-4.232 11.885c-9.913 41.086 28.314 79.314 69.4 69.401a61.048 61.048 0 0 0 11.885-4.233 61.027 61.027 0 0 0 5.418 11.402c22.056 36.059 76.108 36.059 98.164 0a61.027 61.027 0 0 0 5.418-11.402 61.048 61.048 0 0 0 11.885 4.233c41.086 9.913 79.313-28.315 69.4-69.401a61.043 61.043 0 0 0-4.232-11.885 61.027 61.027 0 0 0 11.402-5.418c36.06-22.056 36.06-76.108 0-98.164a61.027 61.027 0 0 0-11.402-5.418 61.043 61.043 0 0 0 4.232-11.885c9.913-41.086-28.314-79.314-69.4-69.401a61.048 61.048 0 0 0-11.885 4.233 61.027 61.027 0 0 0-5.418-11.402c-22.056-36.059-76.108-36.059-98.164 0zm-58.033 100.983a3 3 0 0 0 1.703-4.114l-8.076-16.997c-15.274-32.145 18.261-65.68 50.405-50.406l16.998 8.077a2.999 2.999 0 0 0 4.113-1.703l6.313-17.729c11.944-33.542 59.374-33.542 71.318 0l6.313 17.729a2.999 2.999 0 0 0 4.113 1.703l16.998-8.077c32.144-15.274 65.679 18.261 50.405 50.406l-8.076 16.997a3 3 0 0 0 1.703 4.114l17.728 6.313c33.542 11.945 33.542 59.373 0 71.318l-17.728 6.313a3 3 0 0 0-1.703 4.114l8.076 16.997c15.274 32.145-18.261 65.68-50.405 50.406l-16.998-8.077a2.999 2.999 0 0 0-4.113 1.703l-6.313 17.729c-11.944 33.542-59.374 33.542-71.318 0l-6.313-17.729a2.999 2.999 0 0 0-4.113-1.703l-16.998 8.077c-32.144 15.274-65.679-18.261-50.405-50.406l8.076-16.997a3 3 0 0 0-1.703-4.114l-17.728-6.313c-33.542-11.945-33.542-59.373 0-71.318l17.728-6.313z" class="secondary" opacity="1"/></g><path fill="none" stroke="#393346" stroke-linecap="round" stroke-linejoin="round" stroke-width="7" d="M-70 70 70-70m-95 20c0 13.807-11.193 25-25 25s-25-11.193-25-25 11.193-25 25-25 25 11.193 25 25zM75 50c0 13.807-11.193 25-25 25S25 63.807 25 50s11.193-25 25-25 25 11.193 25 25z" class="primary" style="display:block" transform="translate(217.999 217)"/><g opacity="0" style="display:block"><path fill="none" stroke="#FFC638" stroke-linecap="round" stroke-linejoin="round" stroke-width="8" d="M215.039 83.447c.035-23.349.073 27.913.056 77.053.037 18.255.037 90.745 0 109 .017 49.14-.021 100.402-.056 77.053-.013 51.263-.065 51.263-.078 0-.035 23.349-.073-27.913-.056-77.053-.037-18.255-.037-90.745 0-109-.017-49.14.021-100.402.056-77.053.013-51.263.065-51.263.078 0z" class="secondary" opacity="1"/></g></g><g clip-path="url(#z)" style="display:none"><path class="secondary" style="display:none"/><g mask="url(#A)" style="mix-blend-mode:multiply;display:none"><path class="secondary"/></g><path class="secondary" style="mix-blend-mode:multiply;display:none"/><path class="secondary" style="display:none"/><g mask="url(#B)" style="mix-blend-mode:multiply;display:none"><path class="secondary"/></g><path class="secondary" style="mix-blend-mode:multiply;display:none"/><g fill="none" style="display:none"><path class="primary"/><path class="primary"/></g></g></g></svg>